/* XPM */
static char *good_neighbors_font[] = {
/* columns rows colors chars-per-pixel */
"850 16 3 1 ",
"  c black",
". c magenta",
"X c white",
/* pixels */
"...............................  .....................................  ...  ........  .......................................  ...........................................................................................................  ...........  ..............................................................................................................................................................................................................................................................................    ...  .......    ....... .................................................................................................................................................................................................................................................................  ...  ...  .................................",
"...  ....  .  ...............  XX  ....   ....  ....    .......  .... XX . XX ....   XX   ................................... XX ...    .....  .....    ....      ...  ..  ....      ....     ...      ....    .....    .................. XX ......... XX ........    .....      .....    ....     .....     ...      ....      ...      ....     ...  ..  ...    ......    ...  ..  ...  .......  ....  ...  ...  ....    ....     .....    .....     ......    ....      ...  ..  ...  ..  ...  ....  ...  ...  ...  ..  ...      .. XXXX . XX ..... XXXX ..... X ...............  ..............  ....................  ..............   ............  ........  ......  ...  .......  ......................................................................................................................................... XX . XX . XX ......   .  ....................",
".. XX .. XX XX ..   ..   ... XXXXXX .. XXX .. XX .. XXXX ..... XX .. XX  .  XX .. XX XX XX .................................. XX .. XXXX ... XX ... XXXX .. XXXXX  . XX  XX .. XXXXXX .. XXXXX . XXXXXX .. XXXX ... XXXX ................ XX  .........  XX ...... XXXX ... XXXXXX ... XXXX .. XXXXX ... XXXXX . XXXXXX .. XXXXXX . XXXXXX .. XXXXX . XX  XX . XXXX .... XXXX . XX  XX . XX ..... XX .. XX . XX . XX .. XXXX .. XXXXX ... XXXX ... XXXXX .... XXXX .. XXXXXX . XX  XX . XX  XX . XX .. XX . XX . XX . XX  XX . XXXXXX . XX   . XX .....   XX .... XXX ............. XX ............ XX .................. XX ............ XXX .......... XX ...... XX .... XX . XX ..... XX .......................................................................  .............................................................. XX  . XX .  XX .... XXX XX ...................",
". XXXX . XX XX .  XX  XX  . XX XX XX . X X . XXX . XX  XX .... XX . XX  ...  XX .  XXXXXX  ....  ........................... XXX . XX  XX . XXX .. XX  XX .     XX . XX  XX .. XX     . XX     .     XX . XX  XX . XX  XX .............. XX  ...........  XX .... XX  XX . XX    XX . XX  XX . XX  XX . XX     .  XX  XX . XX     . XX     . XX     . XX  XX .  XX  ....  XX  . XX  XX . XX ..... XXX  XXX . XXX  XX . XX  XX . XX  XX . XX  XX .. XX  XX .. XX  XX .   XX   . XX  XX . XX  XX . XX .. XX . XX   XX . XX  XX .     XX . XX  .. XXX .....  XX ... XX XX ............  XX ........... XX .................. XX ........... XX   .......... XX ...... XX .... XX . XX ..... XX ...................................................................... XX ............................................................ XX  .. XX ..  XX .. XXXXXXX ...................",
". XXXX .  X  X . XXXXXXXX . XX XX    . XXX  XXX  . XX  XX ....  X . XX ..... XX ..  XXXX  .... XX .......................... XX  . XX  XX .. XX ..     XX ...   XX . XX  XX .. XX    .. XX    ...   XXX . XX  XX . XX  XX ..  ......... XX  ....     ....  XX ... XX  XX . XX    XX . XX  XX . XX  XX . XX    ... XX  XX . XX   ... XX   ... XX    .. XX  XX .. XX ...... XX .. XX XX  . XX ..... XXXXXXXX . XXXX XX . XX  XX . XX  XX . XX  XX .. XX  XX .. XX     ..  XX  .. XX  XX . XX  XX . XX .. XX . XXX XXX . XX  XX ..   XXX . XX ...  XX ...... XX .. XX   XX ............  XX ...    ... XX   .....     ....   XX ...    .... XX  ....     .. XX   ....    ....    . XX .  .. XX ...    .  ....     .....    ....     .....     ...      .....     ...  XX  ...  ..  ...  ..  ...  ....  ...  ..  ...  ..  ...      ... XX ... XX ... XX .. XX XXX  ...................",
". XXXX . X  X ..  XX  XX  .  XXXXXX ..     XXX  ..  XXXX    .. X  . XX ..... XX .. XXXXXX ...  XX  ........       ......... XXX .. XX  XX .. XX ... XXXX  .. XXXX  .  XXXXXX .  XXXX .. XXXXX .... XXX  .  XXXX  .  XXXXX . XX ..  ... XX  .... XXXXX ....  XX ..    XXX . XX XX XX . XXXXXX . XXXXX  . XX ...... XX  XX . XXXXX .. XXXXX .. XX XXX . XXXXXX .. XX ...... XX .. XXXX  .. XX ..... XX XX XX . XX XXXX . XX  XX . XXXXX  . XX  XX .. XXXXX  ..  XXXX .... XX ... XX  XX . XX  XX . XX .. XX .  XXXXX  . XXXXXX ... XXX  . XX .... XXX ..... XX . XX  .  XX ............    .. XXXX .. XXXXX ... XXXXX .. XXXXX .. XXXX .. XXXXX .. XXXXX . XXXXX .. XXX ... XXX . XX  XX . XX .. XXXX XX .. XXXXX ... XXXX .. XXXXX ... XXXXX .. XXXXX ... XXXXX . XXXXXX . XX  XX . XX  XX . XX .. XX . XX  XX . XX  XX . XXXXXX .. XX ... XX ... XX ..        ....................",
".  XX  .      ... XX  XX ...   XX XX ..   XXX  ... XX  XX XX .   .. XX ..... XX . XXXXXXXX . XXXXXX ...... XXXXXXX ........ XX  .. XX  XX .. XX .. XX    ...    XX ..    XX  ..    XX . XX  XX ... XX  .. XX  XX .     XX . XX . XX . XXX ..... XXXXX ..... XXX ..  XXX  . XX X XXX . XX  XX . XX  XX . XX ...... XX  XX . XX    .. XX    .. XX  XX . XX  XX .. XX ...... XX .. XX XX .. XX ..... XX    XX . XX  XXX . XX  XX . XX    .. XX  XX .. XX  XX ...    XX ... XX ... XX  XX . XX  XX . XX    XX ..  XXX  ..  XXXX  .. XXX  .. XX ....  XX ..... XX .    ...    .............  ...    XX . XX  XX . XX     . XX  XX . XX  XX .  XX   . XX  XX . XX  XX .  XX ...  XX . XX XX  . XX .. XXXXXXXX . XX  XX . XX  XX . XX  XX . XX  XX .. XX  XX . XXX    .   XX   . XX  XX . XX  XX . XX    XX . XXXXXX . XX  XX .    XXX . XX  ... XX ...  XX ..  .   .....................",
".. XX ... .. ... XXXXXXXX ..   XX XX ... XXX    .. XX   XXX  .. ... XX ..... XX . XX XX XX . XXXXXX ...... XXXXXXX ....... XXX ... XX  XX .. XX .. XX   .....   XX ...   XX ...    XX . XX  XX ... XX ... XX  XX ..    XX .    . XX .  XXX ....       .... XXX  ... XX  .. XX XXXX  . XX  XX . XX  XX . XX ...... XX  XX . XX   ... XX   ... XX  XX . XX  XX .. XX ...  . XX .. XX  XX . XX ..... XX    XX . XX   XX . XX  XX . XX   ... XX  XX .. XX  XX ...    XX ... XX ... XX  XX . XX  XX . XX XX XX .. XXXXX ...  XX  .. XXX  ... XX ..... XXX .... XX ..  .....  ................... XXXXX . XX  XX . XX    .. XX  XX . XXXXXX .. XX  .. XX  XX . XX  XX .. XX .... XX . XXXX  .. XX .. XX XX XX . XX  XX . XX  XX . XX  XX . XX  XX .. XX  XX .  XXXX  ..  XX  .. XX  XX . XX  XX . XX XX XX .. XXXX .. XX  XX ..  XXX  .  XX ... XX ... XX  .............................",
"..    .......... XXXXXXXX . XX XX XX .. XXX  XXX . XX   XX  ....... XX ..... XX .    XX    .   XX   ..  ..         ..  ... XX  ... XX  XX .. XX .. XX    ...    XX ..... XX .. XX  XX . XX  XX ... XX ... XX  XX .     XX . XX .    ..  XXX ... XXXXX ... XXX  ....    ... XX      .. XX  XX . XX  XX . XX    ... XX  XX . XX    .. XX ..... XX  XX . XX  XX .. XX .. XX  XX .. XX  XX . XX    .. XX .. XX . XX . XX . XX  XX . XX ..... XX XXX .. XX  XX .. XX  XX ... XX ... XX  XX . XXXXXX . XXXXXXXX . XXX XXX ... XX ... XX    .. XX .....  XX .... XX ............................. XX  XX . XX  XX . XX    .. XX  XX . XX     .. XX ... XX  XX . XX  XX .. XX .... XX . XX XXX . XX .. XX XX XX . XX  XX . XX  XX . XX  XX . XX  XX .. XX     .    XXX ... XX ... XX  XX . XXXXXX . XXXXXXXX .. XXXX .. XX  XX .. XXX  ... XX ... XX ... XX ..............................",
".. XX ..........  XX  XX  . XXXXXXXX . XXX   X X . XXXXXXXXX ...... XXX ... XXX ..        ...  XX  .. XX ..       .. XX . XXX .... XXXXXX . XXXX . XXXXXX . XXXXXX ..... XX .. XXXXXX . XXXXXX ... XX ... XXXXXX . XXXXXX . XX . XX ...  XXX .. XXXXX .. XXX  ..... XX ... XXXXXXXX . XX  XX . XXXXXX . XXXXXX . XXXXXXX . XXXXXX . XX ..... XXXXXX . XX  XX . XXXX . XXXXXX .. XX  XX . XXXXXX . XX .. XX . XX . XX . XXXXXX . XX ..... XXXXXX .. XX  XXX . XXXXXX ... XX ... XXXXXX .  XXXX  . XXX  XXX . XX   XX ... XX ... XXXXXX . XX  ..... XXX ..  XX ..............      ......... XXXXXX . XXXXXX . XXXXXX . XXXXXX . XXXXXX .. XX ... XXXXXX . XX  XX . XXXX ... XX . XX  XX . XXX . XX XX XX . XX  XX . XXXXXX . XXXXXX . XXXXXX .. XX .  .. XXXXXX ... XXX .. XXXXXX .  XXXX  . XXXXXXXX . XXXXXX . XXXXXX . XXXXXX .. XXX .. XX .. XXX ..............................",
".. XX ...........        ..  XXXXXX  . XX  . XXX .  XXXXX XX ......  XXX . XXX  .....  .......    ... XX ........... XX . XX  ....  XXXX  . XXXX . XXXXXX . XXXXX  ..... XX ..  XXXX  .  XXXX  ... XX ...  XXXX  . XXXXX  .    . XX ....  XXX .       . XXX  ...... XX ...  XXXXXX  . XX  XX . XXXXX  .  XXXXX . XXXXXX  . XXXXXX . XX .....  XXXXX . XX  XX . XXXX .  XXXX  .. XX  XX . XXXXXX . XX .. XX . XX . XX .  XXXX  . XX .....  XXXXXX . XX  XXX .  XXXX  ... XX ...  XXXXX ..  XX  .. XX    XX . XX . XX ... XX ... XXXXXX . XXXX ....  XX . XXXX ............. XXXXXX ........  XXXXX . XXXXX  .  XXXXX .  XXXXX .  XXXXX .. XX ...  XXXXX . XX  XX . XXXX ... XX . XX  XX . XXX . XX XX XX . XX  XX .  XXXX  . XXXXX  .  XXXXX .. XX ..... XXXXX  ...  XX ..  XXXXX ..  XX  ..  XX  XX  . XX  XX .  XXXXX . XXXXXX ..  XXX . XX . XXX  ..............................",
"..    ............  ..  ....   XX   ..    ..     ..          .......  XX . XX  ................  ....  X ...........    . XX ......      ..      .        .        .....    ...      ...       ...    ....      ..       ...  ..  X .....  XX ..     .. XX  .......    ....        ..        .        ..       .        ..        .    ......       .        .      ..      ...        .        .    ..    .    .    ..      ..    ......     XX .         ..      ....    ....       ...    ...    ..    .    .    ...    ...        . XXXX ..... XX . XXXX ............. XXXXXX .........       .       ...       ..       ..       ..    ....    XX .        .      ..  XX .        .     .          .        ..      .. XX    ...    XX  .    .....       .....    ...       ...    ....        ..        ..    XX .        ...  XX . XX . XX  ...............................",
"...  ........................      ....  ....   ....     .  .........    .    ....................... X  ............  ..    .......    ....    ...      ...      .......  .....    .....     .....  ......    ....     ........ X  ......    .........    .........  ......      ....  ..  ...      ....     ...      ....      ...  ........     ...  ..  ...    ....    .....  ..  ...      ...  ....  ...  ...  ....    ....  ........       ..  ..   ....    ......  ......     .....  .....  ....  ...  ...  .....  .....      ..      .....    .      .............        ..........     ...     .....     ....     ....     ....  ..... XXXXX ..  ..  ...    .. XXXX ..  ..  ...   ...  .  .  ...  ..  ....    ... XX   .....   XXX ..  .......     .......  .....     .....  ......  ..  ....  ..  ... XXXXX ..      .....    .    .    ................................",
"...............................  .....................................  ...  ........................   ..................  ....................................................................................................   ........  ...........  ...................................................................................................................................................................................  .........................................................................................    .......  ...    ...............      ............................................................... XXXX  ................. XXX  ............................................. XX ......... XXX ................................................................... XXXX  ..............  ...  ...  .................................",
".....................................................................................................  .......................................................................................................................... ..............................................................................................................................................................................................................................................................................................................................................................................................................      ..................     ..............................................    .........     ...................................................................      ............................................................",
".................................................................................................................................................................................................................................................................................................................................................................................................................................................................................................................................................................................................................................................    ....................   ................................................  ...........   .....................................................................    ............................................................."
};
